<?xml version="1.0" encoding="UTF-8" standalone="no"?>
<svg
   xmlns:dc="http://purl.org/dc/elements/1.1/"
   xmlns:cc="http://creativecommons.org/ns#"
   xmlns:rdf="http://www.w3.org/1999/02/22-rdf-syntax-ns#"
   xmlns:svg="http://www.w3.org/2000/svg"
   xmlns="http://www.w3.org/2000/svg"
   xmlns:xlink="http://www.w3.org/1999/xlink"
   xmlns:sodipodi="http://sodipodi.sourceforge.net/DTD/sodipodi-0.dtd"
   xmlns:inkscape="http://www.inkscape.org/namespaces/inkscape"
   version="1.1"
   id="Capa_1"
   x="0px"
   y="0px"
   viewBox="0 0 512 512"
   style="enable-background:new 0 0 512 512;"
   xml:space="preserve"
   sodipodi:docname="icon-present.svg"
   inkscape:version="0.92.2 (5c3e80d, 2017-08-06)"><metadata
     id="metadata43"><rdf:RDF><cc:Work
         rdf:about=""><dc:format>image/svg+xml</dc:format><dc:type
           rdf:resource="http://purl.org/dc/dcmitype/StillImage" /></cc:Work></rdf:RDF></metadata><defs
     id="defs41"><linearGradient
       inkscape:collect="always"
       id="linearGradient4659-3-6"><stop
         style="stop-color:#002c80;stop-opacity:1"
         offset="0"
         id="stop4655" /><stop
         style="stop-color:#0fb5a5;stop-opacity:0.945"
         offset="1"
         id="stop4657" /></linearGradient><linearGradient
       inkscape:collect="always"
       xlink:href="#linearGradient4659-3-6"
       id="linearGradient4670"
       gradientUnits="userSpaceOnUse"
       x1="17.355932"
       y1="30.372881"
       x2="509.83051"
       y2="498.98306" /></defs><sodipodi:namedview
     pagecolor="#ffffff"
     bordercolor="#666666"
     borderopacity="1"
     objecttolerance="10"
     gridtolerance="10"
     guidetolerance="10"
     inkscape:pageopacity="0"
     inkscape:pageshadow="2"
     inkscape:window-width="1920"
     inkscape:window-height="1001"
     id="namedview39"
     showgrid="false"
     inkscape:zoom="0.4609375"
     inkscape:cx="256"
     inkscape:cy="429.55932"
     inkscape:window-x="-9"
     inkscape:window-y="-9"
     inkscape:window-maximized="1"
     inkscape:current-layer="Capa_1" /><g
     id="g6"><g
       id="g4"><path
         d="M 467,120 H 435.959 C 445.397,107.456 451,91.871 451,75 451,33.645 417.355,0 376,0 347.864,0 322.337,15.528 309.38,40.523 303.661,51.556 297.221,63.593 289.6,75.109 281.351,65.848 269.348,60 256,60 242.652,60 230.649,65.848 222.4,75.109 214.779,63.593 208.338,51.556 202.62,40.523 189.663,15.528 164.136,0 136,0 94.645,0 61,33.645 61,75 c 0,16.871 5.603,32.456 15.041,45 H 45 C 20.187,120 0,140.187 0,165 v 30 c 0,19.556 12.539,36.239 30,42.43 V 467 c 0,24.872 21.096,45 46,45 h 360 c 24.866,0 46,-20.096 46,-45 V 237.43 c 17.461,-6.191 30,-22.873 30,-42.43 v -30 c 0,-24.813 -20.187,-45 -45,-45 z M 300.645,110.551 C 315.733,92.456 326.775,72.155 336.015,54.33 343.793,39.323 359.115,30 376,30 c 24.813,0 45,20.187 45,45 0,24.813 -20.187,45 -45,45 h -13.698 c 9.785,-9.094 17.915,-19.892 23.948,-31.958 l 3.167,-6.334 c 3.704,-7.41 0.7,-16.42 -6.709,-20.124 -7.412,-3.706 -16.421,-0.701 -20.125,6.709 l -3.166,6.334 c -12.061,24.121 -34.626,40.356 -60.662,44.385 0.893,-2.717 1.53,-5.546 1.89,-8.461 z m -59.537,-7.277 C 241.967,95.814 248.313,90 256,90 c 7.687,0 14.033,5.814 14.893,13.274 -0.113,1.096 -0.103,2.199 0.025,3.292 C 270.132,114.104 263.743,120 256,120 c -7.743,0 -14.132,-5.896 -14.917,-13.434 0.128,-1.093 0.137,-2.195 0.025,-3.292 z M 136,30 c 16.885,0 32.207,9.323 39.985,24.33 9.239,17.825 20.281,38.126 35.369,56.22 0.36,2.915 0.998,5.744 1.89,8.461 -26.035,-4.029 -48.601,-20.263 -60.661,-44.384 l -3.167,-6.334 c -3.706,-7.41 -12.715,-10.414 -20.125,-6.709 -7.409,3.705 -10.413,12.715 -6.709,20.124 l 3.168,6.335 c 6.032,12.065 14.162,22.863 23.947,31.957 H 136 C 111.187,120 91,99.813 91,75 91,50.187 111.187,30 136,30 Z m 45,452 H 76 c -8.523,0 -16,-7.009 -16,-15 V 240 h 121 z m 0,-272 H 45 c -8.271,0 -15,-6.729 -15,-15 v -30 c 0,-8.271 6.729,-15 15,-15 6.186,0 128.973,0 136,0 z m 120,272 h -30 v -15 c 0,-8.284 -6.716,-15 -15,-15 -8.284,0 -15,6.716 -15,15 v 15 H 211 V 150 h 30 v 15 c 0,8.284 6.716,15 15,15 8.284,0 15,-6.716 15,-15 v -15 h 30 z m 151,-15 c 0,7.991 -7.477,15 -16,15 H 331 V 240 h 121 z m 30,-272 c 0,8.271 -6.729,15 -15,15 H 331 v -60 c 7.028,0 129.815,0 136,0 8.271,0 15,6.729 15,15 z"
         id="path2"
         inkscape:connector-curvature="0"
         style="fill-opacity:1;fill:url(#linearGradient4670);stroke:none" /></g></g><g
     id="g8" /><g
     id="g10" /><g
     id="g12" /><g
     id="g14" /><g
     id="g16" /><g
     id="g18" /><g
     id="g20" /><g
     id="g22" /><g
     id="g24" /><g
     id="g26" /><g
     id="g28" /><g
     id="g30" /><g
     id="g32" /><g
     id="g34" /><g
     id="g36" /></svg>