<?xml version="1.0" encoding="UTF-8" standalone="no"?>
<!-- Generator: Adobe Illustrator 19.0.0, SVG Export Plug-In . SVG Version: 6.00 Build 0)  -->

<svg
   xmlns:dc="http://purl.org/dc/elements/1.1/"
   xmlns:cc="http://creativecommons.org/ns#"
   xmlns:rdf="http://www.w3.org/1999/02/22-rdf-syntax-ns#"
   xmlns:svg="http://www.w3.org/2000/svg"
   xmlns="http://www.w3.org/2000/svg"
   xmlns:xlink="http://www.w3.org/1999/xlink"
   xmlns:sodipodi="http://sodipodi.sourceforge.net/DTD/sodipodi-0.dtd"
   xmlns:inkscape="http://www.inkscape.org/namespaces/inkscape"
   version="1.1"
   id="Layer_1"
   x="0px"
   y="0px"
   viewBox="0 0 512.001 512.001"
   style="enable-background:new 0 0 512.001 512.001;"
   xml:space="preserve"
   sodipodi:docname="icon-globe.svg"
   inkscape:version="0.92.2 (5c3e80d, 2017-08-06)"><metadata
     id="metadata91"><rdf:RDF><cc:Work
         rdf:about=""><dc:format>image/svg+xml</dc:format><dc:type
           rdf:resource="http://purl.org/dc/dcmitype/StillImage" /></cc:Work></rdf:RDF></metadata><defs
     id="defs89"><linearGradient
       inkscape:collect="always"
       id="linearGradient935-8"><stop
         style="stop-color:#003580;stop-opacity:1"
         offset="0"
         id="stop931" /><stop
         style="stop-color:#20b5c1;stop-opacity:0.94509804"
         offset="1"
         id="stop933" /></linearGradient><linearGradient
       inkscape:collect="always"
       xlink:href="#linearGradient935-8"
       id="linearGradient939"
       gradientUnits="userSpaceOnUse"
       x1="119.19476"
       y1="110.64428"
       x2="496.94205"
       y2="492.47552" /></defs><sodipodi:namedview
     pagecolor="#ffffff"
     bordercolor="#666666"
     borderopacity="1"
     objecttolerance="10"
     gridtolerance="10"
     guidetolerance="10"
     inkscape:pageopacity="0"
     inkscape:pageshadow="2"
     inkscape:window-width="1920"
     inkscape:window-height="1001"
     id="namedview87"
     showgrid="false"
     inkscape:zoom="0.46093662"
     inkscape:cx="256.00049"
     inkscape:cy="256.00049"
     inkscape:window-x="-9"
     inkscape:window-y="-9"
     inkscape:window-maximized="1"
     inkscape:current-layer="Layer_1" /><g
     id="g6" /><g
     id="g929"
     style="fill-opacity:1;fill:url(#linearGradient939)"><g
       id="g4"
       style="fill-opacity:1;fill:url(#linearGradient939)"><path
         inkscape:connector-curvature="0"
         id="path2"
         d="m 260.409,75.835 c -98.127,0 -177.96,79.832 -177.96,177.96 0,98.128 79.833,177.961 177.96,177.961 98.128,0 177.961,-79.833 177.961,-177.961 0,-98.128 -79.833,-177.96 -177.961,-177.96 z m -55.351,30.018 c -11.293,13.201 -20.911,30.406 -28.266,50.571 h -40.68 c 17.763,-22.626 41.563,-40.293 68.946,-50.571 z m -82.318,70.571 h 47.76 c -5.468,20.456 -8.799,43.199 -9.523,67.371 h -58.203 c 1.53,-24.354 8.601,-47.226 19.966,-67.371 z m -19.964,87.371 h 58.203 c 0.657,21.959 3.472,42.732 8.081,61.688 h -49.383 c -9.578,-18.723 -15.515,-39.598 -16.901,-61.688 z m 29.079,81.688 h 42.947 c 7.573,22.625 17.915,41.829 30.255,56.255 -29.633,-11.124 -55.068,-30.905 -73.202,-56.255 z m 118.554,63.984 c -16.46,-4.227 -31.994,-18.815 -44.539,-42.143 -3.648,-6.783 -6.921,-14.094 -9.81,-21.841 h 54.349 z m 0,-83.984 h -60.688 c -5.05,-19.009 -8.031,-39.901 -8.73,-61.688 h 69.418 z m 0,-81.688 h -69.418 c 0.77,-23.981 4.307,-46.875 10.32,-67.371 h 59.098 z m 0,-87.371 h -52.125 c 2.316,-5.656 4.844,-11.059 7.586,-16.158 12.545,-23.328 28.079,-37.916 44.539,-42.142 z m 147.67,20 c 11.366,20.145 18.436,43.017 19.965,67.371 h -58.203 c -0.724,-24.172 -4.055,-46.915 -9.523,-67.371 z m -13.371,-20 h -40.681 c -7.355,-20.165 -16.973,-37.37 -28.266,-50.571 27.384,10.278 51.184,27.945 68.947,50.571 z m -114.299,-58.3 c 16.46,4.227 31.994,18.815 44.539,42.142 2.742,5.099 5.27,10.502 7.586,16.158 h -52.125 z m 0,78.3 h 59.098 c 6.013,20.496 9.55,43.39 10.32,67.371 h -69.418 z m 0,87.371 h 69.418 c -0.7,21.787 -3.68,42.679 -8.73,61.688 h -60.688 z m 0,145.672 v -63.984 h 54.349 c -2.889,7.747 -6.162,15.058 -9.81,21.841 -12.544,23.328 -28.078,37.916 -44.539,42.143 z m 45.351,-7.729 c 12.341,-14.426 22.683,-33.63 30.255,-56.255 h 42.948 c -18.132,25.35 -43.567,45.131 -73.203,56.255 z m 36,-76.255 c 4.609,-18.957 7.423,-39.729 8.081,-61.688 h 58.204 c -1.388,22.09 -7.325,42.965 -16.901,61.688 z"
         style="fill-opacity:1;fill:url(#linearGradient939)" /></g><g
       id="g12"
       style="fill-opacity:1;fill:url(#linearGradient939)"><g
         id="g10"
         style="fill-opacity:1;fill:url(#linearGradient939)"><path
           inkscape:connector-curvature="0"
           id="path8"
           d="m 466.231,0 c -24.112,0 -43.729,19.616 -43.729,43.729 10e-4,24.111 19.617,43.727 43.729,43.727 24.111,0 43.728,-19.616 43.728,-43.728 C 509.959,19.616 490.343,0 466.231,0 Z m 0,67.457 c -13.084,0 -23.729,-10.645 -23.729,-23.728 C 442.503,30.645 453.146,20 466.231,20 c 13.083,0 23.728,10.645 23.728,23.729 -10e-4,13.083 -10.645,23.728 -23.728,23.728 z"
           style="fill-opacity:1;fill:url(#linearGradient939)" /></g></g><g
       id="g18"
       style="fill-opacity:1;fill:url(#linearGradient939)"><g
         id="g16"
         style="fill-opacity:1;fill:url(#linearGradient939)"><path
           inkscape:connector-curvature="0"
           id="path14"
           d="M 45.771,0 C 21.659,0 2.042,19.616 2.042,43.729 2.042,67.84 21.658,87.456 45.77,87.456 69.882,87.456 89.5,67.84 89.5,43.728 89.498,19.616 69.882,0 45.771,0 Z m 0,67.457 C 32.688,67.457 22.043,56.812 22.043,43.729 22.042,30.645 32.687,20 45.771,20 58.854,20 69.5,30.645 69.5,43.729 69.5,56.812 58.854,67.457 45.771,67.457 Z"
           style="fill-opacity:1;fill:url(#linearGradient939)" /></g></g><g
       id="g24"
       style="fill-opacity:1;fill:url(#linearGradient939)"><g
         id="g22"
         style="fill-opacity:1;fill:url(#linearGradient939)"><path
           inkscape:connector-curvature="0"
           id="path20"
           d="m 466.231,424.544 c -24.112,0 -43.729,19.616 -43.729,43.728 0,24.112 19.616,43.729 43.729,43.729 24.111,0 43.728,-19.616 43.728,-43.729 -10e-4,-24.112 -19.616,-43.728 -43.728,-43.728 z m 0,67.456 c -13.084,0 -23.729,-10.645 -23.729,-23.729 0,-13.083 10.645,-23.728 23.729,-23.728 13.083,0 23.728,10.645 23.728,23.728 C 489.958,481.355 479.313,492 466.231,492 Z"
           style="fill-opacity:1;fill:url(#linearGradient939)" /></g></g><g
       id="g30"
       style="fill-opacity:1;fill:url(#linearGradient939)"><g
         id="g28"
         style="fill-opacity:1;fill:url(#linearGradient939)"><path
           inkscape:connector-curvature="0"
           id="path26"
           d="M 45.771,424.544 C 21.66,424.544 2.043,444.16 2.043,468.272 2.043,492.384 21.659,512 45.771,512 69.883,512 89.5,492.384 89.5,468.271 89.498,444.16 69.882,424.544 45.771,424.544 Z m 0,67.456 c -13.083,0 -23.728,-10.645 -23.728,-23.729 0,-13.083 10.645,-23.728 23.728,-23.728 13.084,0 23.729,10.645 23.729,23.728 C 69.498,481.355 58.854,492 45.771,492 Z"
           style="fill-opacity:1;fill:url(#linearGradient939)" /></g></g><g
       id="g36"
       style="fill-opacity:1;fill:url(#linearGradient939)"><g
         id="g34"
         style="fill-opacity:1;fill:url(#linearGradient939)"><circle
           id="circle32"
           r="10"
           cy="101.1"
           cx="102.08"
           style="fill-opacity:1;fill:url(#linearGradient939)" /></g></g><g
       id="g42"
       style="fill-opacity:1;fill:url(#linearGradient939)"><g
         id="g40"
         style="fill-opacity:1;fill:url(#linearGradient939)"><circle
           id="circle38"
           r="10"
           cy="409.32001"
           cx="101.19"
           style="fill-opacity:1;fill:url(#linearGradient939)" /></g></g><g
       id="g48"
       style="fill-opacity:1;fill:url(#linearGradient939)"><g
         id="g46"
         style="fill-opacity:1;fill:url(#linearGradient939)"><circle
           id="circle44"
           r="10"
           cy="410.72"
           cx="413.461"
           style="fill-opacity:1;fill:url(#linearGradient939)" /></g></g><g
       id="g54"
       style="fill-opacity:1;fill:url(#linearGradient939)"><g
         id="g52"
         style="fill-opacity:1;fill:url(#linearGradient939)"><circle
           id="circle50"
           r="10"
           cy="101.1"
           cx="413.461"
           style="fill-opacity:1;fill:url(#linearGradient939)" /></g></g></g><g
     id="g56" /><g
     id="g58" /><g
     id="g60" /><g
     id="g62" /><g
     id="g64" /><g
     id="g66" /><g
     id="g68" /><g
     id="g70" /><g
     id="g72" /><g
     id="g74" /><g
     id="g76" /><g
     id="g78" /><g
     id="g80" /><g
     id="g82" /><g
     id="g84" /></svg>