<?xml version="1.0" encoding="UTF-8" standalone="no"?>
<!-- Generator: Adobe Illustrator 19.0.0, SVG Export Plug-In . SVG Version: 6.00 Build 0)  -->

<svg
   xmlns:dc="http://purl.org/dc/elements/1.1/"
   xmlns:cc="http://creativecommons.org/ns#"
   xmlns:rdf="http://www.w3.org/1999/02/22-rdf-syntax-ns#"
   xmlns:svg="http://www.w3.org/2000/svg"
   xmlns="http://www.w3.org/2000/svg"
   xmlns:sodipodi="http://sodipodi.sourceforge.net/DTD/sodipodi-0.dtd"
   xmlns:inkscape="http://www.inkscape.org/namespaces/inkscape"
   version="1.1"
   id="Layer_1"
   x="0px"
   y="0px"
   viewBox="0 0 512 512"
   style="enable-background:new 0 0 512 512;"
   xml:space="preserve"
   sodipodi:docname="english-part-grey.svg"
   inkscape:version="0.92.2 (5c3e80d, 2017-08-06)"><metadata
     id="metadata951"><rdf:RDF><cc:Work
         rdf:about=""><dc:format>image/svg+xml</dc:format><dc:type
           rdf:resource="http://purl.org/dc/dcmitype/StillImage" /><dc:title></dc:title></cc:Work></rdf:RDF></metadata><defs
     id="defs949"><filter
       style="color-interpolation-filters:sRGB;"
       inkscape:label="Greyscale"
       id="filter4722"><feColorMatrix
         values="0.21 0.72 0.072 0.1 0 0.21 0.72 0.072 0.1 0 0.21 0.72 0.072 0.1 0 0 0 0 1 0 "
         id="feColorMatrix4720" /></filter><filter
       style="color-interpolation-filters:sRGB;"
       inkscape:label="Greyscale"
       id="filter4726"><feColorMatrix
         values="0.21 0.72 0.072 0.1 0 0.21 0.72 0.072 0.1 0 0.21 0.72 0.072 0.1 0 0 0 0 1 0 "
         id="feColorMatrix4724" /></filter><filter
       style="color-interpolation-filters:sRGB;"
       inkscape:label="Greyscale"
       id="filter4730"><feColorMatrix
         values="0.21 0.72 0.072 0.1 0 0.21 0.72 0.072 0.1 0 0.21 0.72 0.072 0.1 0 0 0 0 1 0 "
         id="feColorMatrix4728" /></filter></defs><sodipodi:namedview
     pagecolor="#ffffff"
     bordercolor="#666666"
     borderopacity="1"
     objecttolerance="10"
     gridtolerance="10"
     guidetolerance="10"
     inkscape:pageopacity="0"
     inkscape:pageshadow="2"
     inkscape:window-width="1920"
     inkscape:window-height="1001"
     id="namedview947"
     showgrid="false"
     inkscape:zoom="1.1159029"
     inkscape:cx="29.640563"
     inkscape:cy="296.90434"
     inkscape:window-x="-9"
     inkscape:window-y="-9"
     inkscape:window-maximized="1"
     inkscape:current-layer="Layer_1" /><path
     style="fill:#f0f0f0;filter:url(#filter4730)"
     d="M 512,256 C 512,397.13743 397.3849,511.55193 256,511.55193 114.6151,511.55193 -2.4011184e-6,397.13743 0,256 c 258.72781,-1.393 261.56928,63.21294 258.72781,-1.393 14.89157,-2.69106 0.39206,-0.42006 -2.33575,-254.5789891 C 397.77695,0.0280109 512,114.86257 512,256 Z"
     id="circle884"
     inkscape:connector-curvature="0"
     sodipodi:nodetypes="sscccs" /><g
     id="g902"
     transform="translate(0.63366337,1.2673267)"
     style="filter:url(#filter4726)"><path
       style="fill:#0052b4"
       d="m 503.181,189.219 c -8.829,-32.758 -23.993,-62.913 -44.101,-89.076 l -89.075,89.076 z"
       id="path888"
       inkscape:connector-curvature="0" /><path
       style="fill:#0052b4"
       d="m 8.819,322.784 c 8.83,32.758 23.993,62.913 44.101,89.075 l 89.074,-89.075 z"
       id="path890"
       inkscape:connector-curvature="0" /><path
       style="fill:#0052b4"
       d="M 411.858,52.921 C 385.695,32.812 355.541,17.649 322.782,8.819 v 133.177 z"
       id="path892"
       inkscape:connector-curvature="0" /><path
       style="fill:#0052b4"
       d="m 100.142,459.079 c 26.163,20.109 56.318,35.272 89.076,44.102 V 370.005 Z"
       id="path894"
       inkscape:connector-curvature="0" /><path
       style="fill:#0052b4"
       d="m 322.783,503.181 c 32.758,-8.83 62.913,-23.993 89.075,-44.101 l -89.075,-89.075 z"
       id="path898"
       inkscape:connector-curvature="0" /><path
       style="fill:#0052b4"
       d="m 370.005,322.784 89.075,89.076 c 20.108,-26.162 35.272,-56.318 44.101,-89.076 z"
       id="path900"
       inkscape:connector-curvature="0" /></g><g
     id="g914"
     transform="translate(1.9009901,-1.2673267)"
     style="filter:url(#filter4722)"><path
       style="fill:#d80027"
       d="m 509.833,222.609 h -220.44 -10e-4 L 289.78804,3.5927426 c -10.931,-1.423 -23.97997,-2.297405 -35.29697,-2.297405 -0.74028,46.4743664 0.51828,181.5846324 0.75159,253.7869124 v 0 L 0,256 c -0.08258301,2.29347 0.75959597,19.39867 2.167,33.391 h 220.44 0.001 V 509.833 C 233.539,511.256 244.681,512 256,512 c 11.317,0 22.461,-0.743 33.391,-2.167 v -220.44 -10e-4 H 509.833 C 511.256,278.461 512,267.319 512,256 c 0,-11.317 -0.744,-22.461 -2.167,-33.391 z"
       id="path904"
       inkscape:connector-curvature="0"
       sodipodi:nodetypes="ccccccccccccsccccsc" /><path
       style="fill:#d80027"
       d="m 322.783,322.784 v 0 L 437.019,437.02 c 5.254,-5.252 10.266,-10.743 15.048,-16.435 l -97.802,-97.802 h -31.482 z"
       id="path906"
       inkscape:connector-curvature="0" /><path
       style="fill:#d80027"
       d="m 189.217,322.784 h -0.002 L 74.98,437.019 c 5.252,5.254 10.743,10.266 16.435,15.048 l 97.802,-97.804 z"
       id="path908"
       inkscape:connector-curvature="0" /><path
       style="fill:#d80027"
       d="m 322.783,189.219 v 0 L 437.02,74.981 C 431.768,69.727 426.277,64.715 420.585,59.934 l -97.802,97.803 z"
       id="path912"
       inkscape:connector-curvature="0" /></g><g
     id="g916" /><g
     id="g918" /><g
     id="g920" /><g
     id="g922" /><g
     id="g924" /><g
     id="g926" /><g
     id="g928" /><g
     id="g930" /><g
     id="g932" /><g
     id="g934" /><g
     id="g936" /><g
     id="g938" /><g
     id="g940" /><g
     id="g942" /><g
     id="g944" /></svg>