<?xml version="1.0" encoding="iso-8859-1"?>
<!-- Generator: Adobe Illustrator 19.0.0, SVG Export Plug-In . SVG Version: 6.00 Build 0)  -->
<svg version="1.1" id="Capa_1" xmlns="http://www.w3.org/2000/svg" xmlns:xlink="http://www.w3.org/1999/xlink" x="0px" y="0px"
	 viewBox="0 0 296.4 296.4" style="enable-background:new 0 0 296.4 296.4;" xml:space="preserve">
<g>
	<g>
		<path d="M178.6,92c-5.6,6.4-13.6,10-22,10c-9.2,0-17.2-4.4-22.4-11.2h21.6V78h-27.6c-0.4-1.6-0.4-3.6-0.4-5.2s0.4-3.6,0.4-5.2
			h27.2V54.8h-21.6C139,48,147,43.6,156.2,43.6c8.4,0,16.4,3.6,22,10l9.6-8.4c-8-9.2-19.6-14.4-31.6-14.4c-16.4,0-30.8,9.6-37.6,24
			h-10.4v12.8h7.2c-0.4,1.6-0.4,3.6-0.4,5.2c0,1.6,0.4,3.6,0.4,5.2h-7.2v12.8H119c6.8,14.4,21.2,24,37.6,24c12,0,23.6-5.2,31.6-14.4
			L178.6,92z"/>
	</g>
</g>
<g>
	<g>
		<path d="M152.6,0c-40,0-72.8,32.8-72.8,72.8s32.4,73.2,72.8,73.2c40.4,0,72.8-32.8,72.8-72.8S192.6,0,152.6,0z M152.6,132.8
			c-33.2,0-60-26.8-60-60c-0.4-33.2,26.8-60,60-60s60,26.8,60,60S185.8,132.8,152.6,132.8z"/>
	</g>
</g>
<g>
	<g>
		<path d="M234.2,179.6H229V160c0-3.6-2.8-6.4-6.4-6.4H91c-3.6,0-6.4,2.8-6.4,6.4v26c0,3.6,2.8,6.4,6.4,6.4h5.2v13.2h-10
			c-3.6,0-6.4,2.8-6.4,6.4v19.6H62.2c-3.6,0-6.4,2.8-6.4,6.4v26c0,3.6,2.8,6.4,6.4,6.4h7.2V290c0,3.6,2.8,6.4,6.4,6.4h131.6
			c3.6,0,6.4-2.8,6.4-6.4v-26c0-3.6-2.8-6.4-6.4-6.4h-7.2v-13.2h17.6c3.6,0,6.4-2.8,6.4-6.4v-19.6h10c3.6,0,6.4-2.8,6.4-6.4v-26
			C240.6,182.8,237.8,179.6,234.2,179.6z M97.4,166.8h118.8V180H102.6h-5.2V166.8z M68.6,257.2V244h17.6h101.2v13.2H75.8H68.6z
			 M201,270v13.2h0H82.2V270h111.6H201z M211.4,231.6h-17.6H92.6v-13.2h10h108.8V231.6z M227.8,205.6h-10H109v-13.2h113.6h5.2V205.6
			z"/>
	</g>
</g>
<g>
</g>
<g>
</g>
<g>
</g>
<g>
</g>
<g>
</g>
<g>
</g>
<g>
</g>
<g>
</g>
<g>
</g>
<g>
</g>
<g>
</g>
<g>
</g>
<g>
</g>
<g>
</g>
<g>
</g>
</svg>
