<?xml version="1.0" encoding="iso-8859-1"?>
<!-- Generator: Adobe Illustrator 19.0.0, SVG Export Plug-In . SVG Version: 6.00 Build 0)  -->
<svg version="1.1" id="Capa_1" xmlns="http://www.w3.org/2000/svg" xmlns:xlink="http://www.w3.org/1999/xlink" x="0px" y="0px"
	 viewBox="0 0 512 512" style="enable-background:new 0 0 512 512;" xml:space="preserve">
<g>
	<g>
		<path fill="#FFC1C1" d="M473.924,367.912c-1.14-3.86-5.193-6.065-9.052-4.924c-9.614,2.842-17.037,1.139-22.691-5.203
			c-14.256-15.992-14.282-56.231-0.058-89.695c0.32-0.752,0.629-1.496,0.93-2.238c6.679-16.497,5.187-34.727-4.093-50.016
			c-9.388-15.465-25.089-25.317-43.078-27.031l-10.693-1.019v-85.163l51.944-33.688c17.487-11.341,27.045-32.022,24.348-52.69
			C460.274,6.983,452.32,0,442.981,0h-62.804c-4.025,0-7.287,3.262-7.287,7.287c0,4.025,3.262,7.287,7.287,7.287h62.804
			c2.045,0,3.787,1.529,4.051,3.556c1.973,15.132-5.025,30.275-17.828,38.578L375.11,91.79H123.373L70.257,56.786
			c-12.639-8.328-19.54-23.408-17.583-38.414l0.032-0.243c0.264-2.027,2.005-3.556,4.049-3.556H334.99
			c4.025,0,7.286-3.262,7.286-7.287c0-4.025-3.26-7.286-7.284-7.286H56.756c-9.34,0-17.293,6.984-18.5,16.241l-0.032,0.242
			c-2.674,20.5,6.752,41.096,24.014,52.471l52.302,34.468v305.156l-52.302,34.467C44.976,454.42,35.55,475.017,38.225,495.52
			l0.03,0.235C39.463,505.016,47.417,512,56.756,512h386.225c9.339,0,17.293-6.983,18.501-16.244
			c2.696-20.667-6.861-41.349-24.348-52.69l-51.944-33.688V202.425l9.31,0.887c13.362,1.273,25.027,8.594,32.002,20.086
			c6.869,11.315,7.978,24.796,3.045,36.981c-0.269,0.661-0.546,1.33-0.834,2.009c-16.768,39.448-15.654,84.63,2.591,105.095
			c6.692,7.507,15.419,11.372,25.292,11.372c3.969,0,8.125-0.626,12.405-1.89C472.861,375.824,475.065,371.771,473.924,367.912z
			 M129.113,106.363h133.97L370.617,119.3v18.665L129.113,108.91V106.363z M129.113,123.588l241.504,29.055v18.665l-241.504-29.055
			V123.588z M129.113,156.931l241.504,29.055v8.476c0,0.002,0,0.003,0,0.005v10.184l-241.504-29.055V156.931z M129.113,190.274
			l241.504,29.055v18.665l-241.504-29.055V190.274z M129.113,223.617l241.504,29.055v18.665l-241.504-29.055V223.617z
			 M129.113,256.96l241.504,29.055v18.664l-241.504-29.055V256.96z M129.113,323.645l16.17,1.945
			c0.295,0.036,0.589,0.053,0.88,0.053c3.635,0,6.78-2.717,7.225-6.417c0.481-3.996-2.369-7.624-6.364-8.105l-17.91-2.155v-18.665
			l241.504,29.055v18.665l-178.733-21.503c-3.987-0.485-7.624,2.369-8.104,6.364c-0.481,3.996,2.368,7.624,6.364,8.105
			L370.617,352.7v18.665L129.113,342.31V323.645z M129.113,356.988l241.504,29.055v18.664l-241.504-29.055V356.988z
			 M129.113,390.331l127.222,15.306H129.113V390.331z M429.204,455.293c12.804,8.303,19.802,23.446,17.828,38.577
			c-0.265,2.028-2.007,3.557-4.051,3.557H56.756c-2.045,0-3.786-1.528-4.05-3.56l-0.03-0.236
			c-1.958-15.009,4.943-30.089,17.582-38.418l53.116-35.004H375.11L429.204,455.293z"/>
	</g>
</g>
<g>
</g>
<g>
</g>
<g>
</g>
<g>
</g>
<g>
</g>
<g>
</g>
<g>
</g>
<g>
</g>
<g>
</g>
<g>
</g>
<g>
</g>
<g>
</g>
<g>
</g>
<g>
</g>
<g>
</g>
</svg>
