<?xml version="1.0" encoding="iso-8859-1"?>
<!-- Generator: Adobe Illustrator 19.0.0, SVG Export Plug-In . SVG Version: 6.00 Build 0)  -->
<svg version="1.1" id="Layer_1" xmlns="http://www.w3.org/2000/svg" xmlns:xlink="http://www.w3.org/1999/xlink" x="0px" y="0px"
	 viewBox="0 0 512 512" style="enable-background:new 0 0 512 512;" xml:space="preserve">
<g>
	<g>
		<path d="M511.96,99.763c-0.737-24.64-11.863-48.93-31.328-68.395c-19.466-19.465-43.756-30.59-68.395-31.328
			c-26.451-0.782-51.685,10.043-72.973,31.328c-21.953,21.954-42.623,52.73-57.716,75.202c-5.593,8.327-10.422,15.519-14.066,20.377
			c-4.164,5.551-14.185,16.752-28.215,31.54c-2.985,3.145-2.854,8.114,0.291,11.098c3.143,2.985,8.114,2.853,11.098-0.291
			c10.212-10.761,23.599-25.209,29.386-32.925c3.89-5.185,8.825-12.534,14.54-21.043c9.743-14.505,21.871-32.545,35-49.144
			l63.613,153.576c-7.029,4.727-13.101,8.853-17.564,12.201c-23.787,17.84-125.837,119.89-143.677,143.677
			c-3.89,5.185-8.825,12.534-14.54,21.043c-8.995,13.394-20.026,29.804-31.999,45.31l-63.027-152.16
			c5.506-3.722,10.294-7.02,13.977-9.783c14.541-10.906,56.229-51.282,89.896-85.53c3.039-3.092,2.997-8.063-0.095-11.101
			c-3.093-3.039-8.063-2.998-11.101,0.095c-38.148,38.809-76.032,74.911-88.119,83.977c-4.859,3.644-12.051,8.474-20.377,14.066
			c-22.472,15.093-53.248,35.763-75.202,57.717C10.082,360.551-0.751,385.786,0.04,412.237c0.737,24.64,11.863,48.93,31.328,68.395
			c19.466,19.465,43.756,30.591,68.395,31.328c0.902,0.026,1.801,0.04,2.701,0.04c25.466,0,49.71-10.808,70.272-31.368
			c21.953-21.954,42.623-52.73,57.716-75.202c5.593-8.327,10.422-15.519,14.066-20.377
			c16.888-22.516,118.021-123.649,140.537-140.537c4.859-3.644,12.051-8.474,20.377-14.066
			c22.472-15.093,53.248-35.763,75.202-57.717C501.918,151.449,512.751,126.215,511.96,99.763z M42.471,469.53
			c-25.756-25.755-37.81-65.609-13.577-102.607l52.248,126.135C66.602,488.746,53.291,480.35,42.471,469.53z M102.769,496.258
			c-1.119,0.001-2.233-0.032-3.343-0.084L40.061,352.858c0.785-0.832,1.583-1.663,2.41-2.49c3.565-3.565,7.413-7.107,11.427-10.608
			l64.149,154.868C112.917,495.731,107.809,496.258,102.769,496.258z M133.007,489.722L66.554,329.289
			c4.731-3.734,9.568-7.381,14.412-10.918l67.325,162.535C143.244,484.52,138.135,487.439,133.007,489.722z M161.633,469.53
			c-0.251,0.251-0.503,0.492-0.756,0.74L94.09,309.028c5.183-3.606,10.229-7.035,15.012-10.259l65.072,157.097
			C170.047,460.697,165.856,465.306,161.633,469.53z M406.483,210.809L340.936,52.562c3.118-3.528,6.265-6.924,9.431-10.09
			c1.343-1.343,2.694-2.627,4.052-3.859l67.049,161.87C416.335,204.092,411.298,207.547,406.483,210.809z M434.551,191.043
			L367.288,28.656c4.398-2.85,8.834-5.194,13.283-7.059l66.278,160.009C442.816,184.816,438.696,187.967,434.551,191.043z
			 M469.529,161.632c-3.158,3.159-6.545,6.297-10.063,9.407L395.671,17.026c6.34-1.205,12.637-1.536,18.808-1.093l58.748,141.828
			C472.046,159.058,470.813,160.349,469.529,161.632z M484.235,143.313L432.994,19.605c13.707,4.478,26.246,12.577,36.535,22.866
			C494.875,67.817,506.953,106.817,484.235,143.313z"/>
	</g>
</g>
<g>
	<g>
		<path d="M338.12,145.08c-8.068-7.85-18.716-12.019-29.985-11.694c-21.708,0.594-39.439,18.699-40.155,40.65
			c-0.019,0.224-0.035,59.295-0.035,59.295c0,13.563,11.034,24.598,24.598,24.598h33.495c13.563,0,24.598-11.034,24.598-24.598
			v-58.616C350.635,163.457,346.191,152.932,338.12,145.08z M308.564,149.081c6.997-0.181,13.603,2.383,18.606,7.253
			c3.064,2.981,5.281,6.585,6.543,10.532h-48.652C288.479,156.8,297.721,149.378,308.564,149.081z M334.935,233.331
			c0,4.906-3.991,8.897-8.897,8.897h-33.495c-4.906,0-8.897-3.991-8.897-8.897v-0.523h51.289V233.331z M334.935,217.107h-51.289
			v-9.42h51.289V217.107z M334.935,191.986h-51.289v-9.42h51.289V191.986z"/>
	</g>
</g>
<g>
	<g>
		<path d="M231.539,251.66c-8.067-7.85-18.714-12.019-29.986-11.694c-21.708,0.596-39.439,18.702-40.154,40.651
			c-0.019,0.224-0.035,59.294-0.035,59.294c0,13.563,11.034,24.598,24.598,24.598h33.495c13.563,0,24.598-11.034,24.598-24.598
			v-58.616C244.054,270.036,239.61,259.511,231.539,251.66z M201.985,255.661c6.987-0.177,13.603,2.383,18.606,7.253
			c3.064,2.98,5.281,6.584,6.543,10.532h-48.653C181.898,263.381,191.141,255.959,201.985,255.661z M228.354,339.912
			c0,4.906-3.991,8.897-8.897,8.897h-33.495c-4.906,0-8.897-3.991-8.897-8.897v-0.523h51.289V339.912z M228.354,323.688h-51.289
			v-9.42h51.289V323.688z M228.354,298.567h-51.289v-9.42h51.289V298.567z"/>
	</g>
</g>
<g>
	<g>
		<path d="M149.873,105.273l19.569-19.569c3.066-3.067,3.066-8.037,0-11.102c-3.067-3.065-8.037-3.065-11.102,0l-22.823,22.823
			h-22.392V75.031l22.823-22.823c3.066-3.067,3.066-8.037,0-11.102c-3.067-3.065-8.037-3.065-11.102,0l-19.569,19.569L85.703,41.107
			c-3.067-3.065-8.037-3.065-11.102,0c-3.066,3.067-3.066,8.037,0,11.102l22.823,22.823v22.392H75.031L52.209,74.601
			c-3.067-3.065-8.037-3.065-11.102,0c-3.066,3.067-3.066,8.037,0,11.102l19.569,19.569l-19.569,19.569
			c-3.066,3.068-3.066,8.038,0,11.104c3.025,3.024,8.077,3.024,11.102,0l22.823-22.823h22.392v22.392l-22.823,22.823
			c-2.857,2.859-3.048,7.579-0.417,10.652c2.935,3.429,8.327,3.642,11.52,0.451l19.569-19.569l19.569,19.569
			c3.193,3.191,8.584,2.979,11.52-0.451c2.63-3.073,2.441-7.794-0.417-10.652l-22.823-22.823v-22.392h22.392l22.822,22.823
			c3.194,3.191,8.584,2.979,11.52-0.451c2.63-3.073,2.441-7.794-0.417-10.652L149.873,105.273z"/>
	</g>
</g>
<g>
	<g>
		<path d="M476.449,331.363l11.196-11.196c3.062-3.066,3.062-8.036-0.004-11.102c-3.067-3.065-8.037-3.065-11.102,0l-14.449,14.449
			h-5.645v-5.645l14.449-14.449c3.066-3.067,3.066-8.037,0-11.102c-3.067-3.065-8.037-3.065-11.102,0l-11.196,11.196l-11.196-11.196
			c-3.067-3.065-8.037-3.065-11.102,0c-3.066,3.067-3.066,8.037,0,11.102l14.449,14.449v5.645h-5.645l-14.449-14.449
			c-3.067-3.065-8.037-3.065-11.102,0c-3.066,3.067-3.066,8.037,0,11.102l11.196,11.196l-11.196,11.196
			c-2.857,2.859-3.048,7.579-0.417,10.652c2.935,3.429,8.327,3.642,11.52,0.451l14.449-14.449h5.645v5.645l-14.449,14.449
			c-2.858,2.859-3.048,7.579-0.417,10.652c2.935,3.429,8.327,3.642,11.52,0.451l11.196-11.196l11.196,11.196
			c3.193,3.191,8.584,2.979,11.52-0.451c2.63-3.073,2.441-7.794-0.417-10.652l-14.449-14.449v-5.645h5.645l14.449,14.449
			c3.194,3.191,8.584,2.979,11.52-0.451c2.63-3.073,2.441-7.794-0.417-10.652L476.449,331.363z"/>
	</g>
</g>
<g>
	<g>
		<path d="M350.844,448.594l11.196-11.196c3.062-3.066,3.062-8.036-0.004-11.102c-3.067-3.065-8.037-3.065-11.102,0l-14.449,14.449
			h-5.645V435.1l14.449-14.449c3.066-3.067,3.066-8.037,0-11.102c-3.067-3.065-8.037-3.065-11.102,0l-11.196,11.196l-11.196-11.196
			c-3.067-3.065-8.037-3.065-11.102,0c-3.066,3.067-3.066,8.037,0,11.102L315.14,435.1v5.645h-5.645l-14.449-14.449
			c-3.067-3.065-8.037-3.065-11.102,0c-3.066,3.067-3.066,8.037,0,11.102l11.196,11.196l-11.196,11.196
			c-2.858,2.859-3.048,7.579-0.417,10.652c2.935,3.429,8.327,3.642,11.52,0.451l14.449-14.449h5.645v5.645l-14.449,14.449
			c-2.858,2.859-3.048,7.579-0.417,10.652c2.935,3.429,8.327,3.641,11.52,0.451l11.196-11.196l11.196,11.196
			c3.194,3.191,8.584,2.979,11.52-0.451c2.63-3.073,2.441-7.794-0.417-10.652l-14.449-14.449v-5.645h5.645l14.449,14.449
			c3.194,3.191,8.584,2.979,11.52-0.451c2.63-3.073,2.441-7.794-0.417-10.652L350.844,448.594z"/>
	</g>
</g>
<g>
</g>
<g>
</g>
<g>
</g>
<g>
</g>
<g>
</g>
<g>
</g>
<g>
</g>
<g>
</g>
<g>
</g>
<g>
</g>
<g>
</g>
<g>
</g>
<g>
</g>
<g>
</g>
<g>
</g>
</svg>
