<?xml version="1.0" encoding="UTF-8" standalone="no"?>
<svg
   xmlns:dc="http://purl.org/dc/elements/1.1/"
   xmlns:cc="http://creativecommons.org/ns#"
   xmlns:rdf="http://www.w3.org/1999/02/22-rdf-syntax-ns#"
   xmlns:svg="http://www.w3.org/2000/svg"
   xmlns="http://www.w3.org/2000/svg"
   xmlns:sodipodi="http://sodipodi.sourceforge.net/DTD/sodipodi-0.dtd"
   xmlns:inkscape="http://www.inkscape.org/namespaces/inkscape"
   viewBox="0 0 500 500"
   version="1.1"
   id="svg843"
   sodipodi:docname="Bootstrap3.svg"
   inkscape:version="0.92.2 (5c3e80d, 2017-08-06)">
  <metadata
     id="metadata849">
    <rdf:RDF>
      <cc:Work
         rdf:about="">
        <dc:format>image/svg+xml</dc:format>
        <dc:type
           rdf:resource="http://purl.org/dc/dcmitype/StillImage" />
      </cc:Work>
    </rdf:RDF>
  </metadata>
  <defs
     id="defs847" />
  <sodipodi:namedview
     pagecolor="#ffffff"
     bordercolor="#666666"
     borderopacity="1"
     objecttolerance="10"
     gridtolerance="10"
     guidetolerance="10"
     inkscape:pageopacity="0"
     inkscape:pageshadow="2"
     inkscape:window-width="1920"
     inkscape:window-height="1001"
     id="namedview845"
     showgrid="false"
     inkscape:zoom="1.616"
     inkscape:cx="250"
     inkscape:cy="250"
     inkscape:window-x="-9"
     inkscape:window-y="-9"
     inkscape:window-maximized="1"
     inkscape:current-layer="g841" />
  <g
     transform="translate(41,41)"
     id="g841"
     style="fill:none;fill-rule:evenodd">
    <path
       d="M 0,364.97 C 0,394.811 24.19,419 54.03,419 h 310.95 c 29.841,0 54.03,-24.19 54.03,-54.03 V 54.02 c 0,-29.841 -24.19,-54.03 -54.03,-54.03 H 54.03 C 24.189,-0.01 0,24.18 0,54.02 v 310.95"
       id="path833"
       inkscape:connector-curvature="0"
       style="fill:#6f021d;stroke:#ffffff" />
    <g
       id="g839"
       style="fill:#ffffff">
      <path
         d="M 173.75,185.34 V 126 h 52.23 c 4.974,0 9.771,0.415 14.39,1.244 4.619,0.829 8.705,2.31 12.258,4.441 3.553,2.132 6.396,5.093 8.527,8.883 2.132,3.79 3.198,8.646 3.198,14.568 0,10.659 -3.198,18.358 -9.593,23.1 -6.396,4.737 -14.568,7.106 -24.516,7.106 h -56.49 M 117.97,82.662 v 253.69 h 122.94 c 11.37,0 22.444,-1.421 33.22,-4.264 10.778,-2.842 20.371,-7.225 28.78,-13.146 8.409,-5.922 15.1,-13.561 20.08,-22.918 4.974,-9.357 7.462,-20.43 7.462,-33.22 0,-15.871 -3.849,-29.431 -11.548,-40.683 -7.698,-11.252 -19.364,-19.13 -34.998,-23.628 11.37,-5.448 19.957,-12.436 25.76,-20.963 5.803,-8.527 8.705,-19.19 8.705,-31.978 0,-11.844 -1.954,-21.792 -5.863,-29.846 -3.908,-8.05 -9.416,-14.508 -16.522,-19.364 -7.106,-4.856 -15.634,-8.35 -25.582,-10.482 -9.949,-2.132 -20.963,-3.198 -33.04,-3.198 h -119.38 m 55.784,210.34 v -69.64 h 60.758 c 12.08,0 21.792,2.783 29.14,8.35 7.343,5.567 11.01,14.864 11.01,27.892 0,6.632 -1.125,12.08 -3.375,16.344 -2.25,4.264 -5.27,7.639 -9.06,10.126 -3.79,2.487 -8.172,4.264 -13.146,5.33 -4.974,1.066 -10.186,1.599 -15.634,1.599 h -59.692"
         id="path835"
         inkscape:connector-curvature="0" />
      <path
         d="m 349.19,322.17 -18.15,-3.253 c 1.509,-5.783 4.408,-10.214 8.697,-13.294 4.29,-3.08 10.363,-4.62 18.22,-4.62 9.02,0 15.541,1.681 19.563,5.04 4.02,3.363 6.03,7.59 6.03,12.681 0,2.986 -0.817,5.688 -2.451,8.108 -1.634,2.42 -4.101,4.541 -7.401,6.364 2.671,0.66 4.714,1.43 6.128,2.31 2.294,1.414 4.078,3.276 5.35,5.586 1.273,2.31 1.909,5.068 1.909,8.273 0,4.02 -1.053,7.88 -3.158,11.573 -2.106,3.693 -5.138,6.537 -9.1,8.532 -3.96,1.996 -9.161,2.993 -15.604,2.993 -6.285,0 -11.243,-0.739 -14.873,-2.216 -3.63,-1.477 -6.615,-3.638 -8.957,-6.482 -2.341,-2.844 -4.141,-6.419 -5.398,-10.724 l 19.19,-2.546 c 0.754,3.866 1.925,6.545 3.512,8.04 1.587,1.493 3.606,2.239 6.06,2.239 2.577,0 4.722,-0.943 6.435,-2.828 1.713,-1.886 2.569,-4.4 2.569,-7.543 0,-3.206 -0.825,-5.688 -2.475,-7.448 -1.65,-1.76 -3.889,-2.64 -6.718,-2.64 -1.509,0 -3.583,0.377 -6.223,1.131 l 0.99,-13.718 c 1.069,0.157 1.901,0.236 2.498,0.236 2.514,0 4.612,-0.801 6.293,-2.404 1.681,-1.603 2.522,-3.504 2.522,-5.704 0,-2.106 -0.629,-3.787 -1.886,-5.04 -1.257,-1.257 -2.986,-1.886 -5.185,-1.886 -2.263,0 -4.101,0.684 -5.515,2.051 -1.414,1.367 -2.373,3.763 -2.876,7.189"
         id="path837"
         inkscape:connector-curvature="0" />
    </g>
  </g>
</svg>
