<?xml version="1.0" encoding="UTF-8" standalone="no"?>
<!-- Generator: Adobe Illustrator 18.1.0, SVG Export Plug-In . SVG Version: 6.00 Build 0)  -->

<svg
   xmlns:dc="http://purl.org/dc/elements/1.1/"
   xmlns:cc="http://creativecommons.org/ns#"
   xmlns:rdf="http://www.w3.org/1999/02/22-rdf-syntax-ns#"
   xmlns:svg="http://www.w3.org/2000/svg"
   xmlns="http://www.w3.org/2000/svg"
   xmlns:sodipodi="http://sodipodi.sourceforge.net/DTD/sodipodi-0.dtd"
   xmlns:inkscape="http://www.inkscape.org/namespaces/inkscape"
   version="1.1"
   id="Layer_1"
   x="0px"
   y="0px"
   viewBox="0 90 612 612"
   enable-background="new 0 90 612 612"
   xml:space="preserve"
   sodipodi:docname="es6.svg"
   inkscape:version="0.92.2 (5c3e80d, 2017-08-06)"><metadata
     id="metadata835"><rdf:RDF><cc:Work
         rdf:about=""><dc:format>image/svg+xml</dc:format><dc:type
           rdf:resource="http://purl.org/dc/dcmitype/StillImage" /></cc:Work></rdf:RDF></metadata><defs
     id="defs833" /><sodipodi:namedview
     pagecolor="#ffffff"
     bordercolor="#666666"
     borderopacity="1"
     objecttolerance="10"
     gridtolerance="10"
     guidetolerance="10"
     inkscape:pageopacity="0"
     inkscape:pageshadow="2"
     inkscape:window-width="1920"
     inkscape:window-height="1001"
     id="namedview831"
     showgrid="false"
     inkscape:zoom="0.66013072"
     inkscape:cx="569.40579"
     inkscape:cy="162.29005"
     inkscape:window-x="-9"
     inkscape:window-y="-9"
     inkscape:window-maximized="1"
     inkscape:current-layer="Layer_1" /><rect
     y="90"
     fill="#F0DB4F"
     width="612"
     height="612"
     id="rect826"
     style="fill:#000000" /><path
     d="m 561.38676,496.93292 c -5.88821,-44.73239 -29.70273,-82.41021 -100.23035,-117.3624 -24.46877,-13.78848 -51.81622,-23.72901 -59.92885,-46.49604 -2.87868,-13.30748 -3.27123,-20.68271 -1.43934,-28.69927 5.23396,-25.97365 30.61867,-34.15054 50.63857,-26.61497 12.95405,5.29092 25.25386,17.47609 32.5814,37.03649 34.54415,-27.41662 34.54415,-27.25629 58.62037,-46.01504 -8.76689,-16.83477 -13.6083,-24.53066 -19.36566,-31.74556 -20.80499,-28.37862 -49.06838,-43.12908 -94.34214,-42.00677 -7.85095,1.28265 -15.70189,2.5653 -23.55283,3.68762 -22.63688,7.05457 -44.09612,21.48437 -56.78847,41.04477 -37.94622,52.74895 -27.08575,144.93936 18.9731,182.93785 45.40462,41.84643 112.13762,51.30596 120.77365,90.42676 8.24349,47.77869 -28.65593,63.33081 -65.42451,57.87955 -27.08575,-6.89424 -42.13338,-23.72901 -58.48951,-54.51259 -29.96443,21.32404 -29.96443,21.32404 -60.8448,42.96875 7.32755,19.5604 15.04764,28.37861 27.2166,45.37371 57.96612,72.14902 203.20853,68.62173 229.24749,-40.56378 1.04679,-3.68762 7.98179,-28.69927 2.35528,-67.33908 z M 261.4808,200.80129 h -74.84564 c 0,79.20358 -0.2617,157.92618 -0.2617,237.2901 0,50.50431 2.09358,96.67968 -4.57972,110.94915 -10.99131,27.89762 -39.38555,24.37034 -52.3396,19.07941 -13.21576,-7.85623 -19.88906,-19.23974 -27.60915,-35.11252 -2.093583,-4.64961 -3.79462,-8.17689 -4.318016,-8.33722 -20.281599,15.23146 -40.563197,30.46292 -60.844796,45.69437 10.075375,25.49266 24.992164,47.61836 44.096121,61.88783 28.525091,21.00338 66.863851,27.41663 107.034501,16.19344 26.1698,-9.2992 48.67584,-28.69927 60.45225,-58.03987 17.01037,-38.47948 13.3466,-85.13584 13.21575,-136.76247 0.39255,-84.33419 0,-168.50804 0,-252.84222 z"
     id="path828"
     style="fill:#ffffff;stroke-width:1.44841897"
     inkscape:connector-curvature="0" /></svg>