<?xml version="1.0" encoding="UTF-8" standalone="no"?>
<svg
   xmlns:dc="http://purl.org/dc/elements/1.1/"
   xmlns:cc="http://creativecommons.org/ns#"
   xmlns:rdf="http://www.w3.org/1999/02/22-rdf-syntax-ns#"
   xmlns:svg="http://www.w3.org/2000/svg"
   xmlns="http://www.w3.org/2000/svg"
   xmlns:sodipodi="http://sodipodi.sourceforge.net/DTD/sodipodi-0.dtd"
   xmlns:inkscape="http://www.inkscape.org/namespaces/inkscape"
   width="220"
   height="196"
   viewBox="0 0 220 196"
   version="1.1"
   id="svg1458"
   sodipodi:docname="reactjs.svg"
   inkscape:version="0.92.2 (5c3e80d, 2017-08-06)">
  <metadata
     id="metadata1464">
    <rdf:RDF>
      <cc:Work
         rdf:about="">
        <dc:format>image/svg+xml</dc:format>
        <dc:type
           rdf:resource="http://purl.org/dc/dcmitype/StillImage" />
      </cc:Work>
    </rdf:RDF>
  </metadata>
  <defs
     id="defs1462" />
  <sodipodi:namedview
     pagecolor="#ffffff"
     bordercolor="#666666"
     borderopacity="1"
     objecttolerance="10"
     gridtolerance="10"
     guidetolerance="10"
     inkscape:pageopacity="0"
     inkscape:pageshadow="2"
     inkscape:window-width="1920"
     inkscape:window-height="1001"
     id="namedview1460"
     showgrid="false"
     inkscape:zoom="2.4081633"
     inkscape:cx="-32.712495"
     inkscape:cy="135.83053"
     inkscape:window-x="-9"
     inkscape:window-y="-9"
     inkscape:window-maximized="1"
     inkscape:current-layer="svg1458" />
  <path
     stroke-miterlimit="10"
     d="m 109.16948,78.659255 c 10.91,0 19.756,8.845 19.756,19.756 0,10.910995 -8.846,19.755995 -19.756,19.755995 -10.909989,0 -19.755989,-8.846 -19.755989,-19.755995 0,-10.91 8.846,-19.756 19.755989,-19.756 z m 0,-19.756 c 57.283,0 103.72,17.69 103.72,39.512 0,21.821995 -46.437,39.511995 -103.72,39.511995 -57.282989,0 -103.7199886,-17.69 -103.7199886,-39.511995 0,-21.822 46.4369996,-39.512 103.7199886,-39.512 z m 34.22,59.267995 c -28.642,49.608 -67.179989,80.98 -86.079989,70.068 -18.9,-10.912 -11,-59.972 17.642,-109.579995 28.641989,-49.608 67.179989,-80.9800008 86.077989,-70.0680008 18.898,10.9120008 11,59.9720008 -17.64,109.5799958 z m 0,-39.511995 c 28.64,49.607995 36.54,98.669995 17.64,109.579995 -18.9,10.91 -57.437,-20.46 -86.079989,-70.068 -28.643,-49.607995 -36.54,-98.669995 -17.64,-109.5799958 18.9,-10.91 57.436989,20.4600008 86.079989,70.0680008 z"
     id="path1456"
     inkscape:connector-curvature="0"
     style="fill:none;stroke:#6fcff0;stroke-width:7;stroke-miterlimit:10" />
  <path
     style="opacity:0.93699999;fill:#ffffff;fill-opacity:1;fill-rule:evenodd;stroke:none;stroke-width:0.41525424;stroke-linecap:round;stroke-linejoin:round;stroke-miterlimit:4;stroke-dasharray:none;stroke-dashoffset:0;paint-order:normal"
     d="m 62.145298,83.569048 c -2.723624,-6.867867 -5.570115,-15.157877 -5.298076,-15.429915 0.314967,-0.314967 10.262674,-2.205623 15.333503,-2.914278 2.626483,-0.367054 5.370789,-0.763951 6.098458,-0.881994 l 1.323035,-0.214623 -3.444119,5.515956 c -3.269312,5.235991 -9.539625,16.243217 -10.652693,18.700277 -0.284522,0.628072 -0.628938,1.14195 -0.765369,1.14195 -0.136431,0 -1.304064,-2.662818 -2.594739,-5.917373 z"
     id="path2018"
     inkscape:connector-curvature="0" />
  <path
     style="opacity:0.93699999;fill:#000000;fill-opacity:1;fill-rule:evenodd;stroke:none;stroke-width:0.41525424;stroke-linecap:round;stroke-linejoin:round;stroke-miterlimit:4;stroke-dasharray:none;stroke-dashoffset:0;paint-order:normal"
     d="m 60.744021,193.16376 c -7.571866,-1.93994 -13.237558,-8.30534 -15.555664,-17.47678 -2.364857,-9.3564 -1.752299,-23.11335 1.671759,-37.54479 0.451336,-1.90225 0.820609,-3.67979 0.820609,-3.9501 0,-0.27031 -1.261335,-0.84434 -2.802966,-1.27563 -9.371724,-2.62187 -21.062894,-7.78195 -27.88384,-12.30697 -6.95291,-4.61257 -12.348294,-10.98373 -14.0484418,-16.58917 -0.8981531,-2.96124 -0.8981531,-8.250625 0,-11.211866 C 4.64581,87.202406 10.042474,80.830105 16.993919,76.220268 c 6.892131,-4.570499 18.428676,-9.662741 27.88384,-12.307952 1.541631,-0.431292 2.802966,-1.005327 2.802966,-1.275632 0,-0.27031 -0.369273,-2.047856 -0.820609,-3.950102 C 44.393788,48.291714 43.228685,36.559962 43.922371,29.105689 44.805949,19.610933 47.186826,13.501538 51.798407,8.8955636 56.202979,4.4963464 61.098623,2.7598759 67.745365,3.2392201 78.454544,4.0115352 92.740307,11.985221 105.692,24.419364 l 3.45977,3.321518 3.00389,-2.892454 c 10.19218,-9.814105 22.84363,-17.9481074 31.86405,-20.4863661 6.7629,-1.9030163 13.84055,-1.4545394 18.41713,1.1670056 11.82817,6.7753875 15.14402,25.1106255 9.35168,51.7108515 -0.68856,3.162095 -1.19185,5.794944 -1.11842,5.850779 0.0734,0.05583 1.34812,0.431175 2.83266,0.834092 4.76798,1.294073 12.93604,4.393415 18.2438,6.922537 12.24848,5.836349 20.15614,12.972534 23.34792,21.070067 1.31659,3.340193 1.31659,9.653796 0,12.993986 -3.19178,8.09753 -11.09944,15.23372 -23.34792,21.07007 -5.30776,2.52912 -13.47582,5.62846 -18.2438,6.92253 -1.48454,0.40292 -2.75923,0.77826 -2.83266,0.8341 -0.0734,0.0558 0.42986,2.68868 1.11842,5.85077 5.79962,26.63367 2.48066,44.92567 -9.38647,51.73227 -4.48633,2.57321 -11.68516,3.02067 -18.38234,1.14259 -8.80721,-2.46978 -20.17308,-9.68017 -30.84762,-19.56939 l -4.06372,-3.76476 -3.43807,3.30068 c -9.981954,9.58308 -22.375827,17.49131 -31.413304,20.04408 -3.886638,1.09783 -10.58503,1.43959 -13.512975,0.68944 z m 12.862762,-7.5236 c 8.443389,-2.83436 20.691778,-11.07071 28.635097,-19.2555 l 2.03149,-2.09325 -1.54344,-1.79445 c -5.945375,-6.91224 -10.803181,-12.88291 -14.008366,-17.2175 l -3.728053,-5.0417 -2.772919,-0.282 c -5.785317,-0.58834 -15.049112,-1.97753 -21.193019,-3.17809 -3.507752,-0.68543 -6.482347,-1.14163 -6.610216,-1.01376 -0.4435,0.4435 -2.532959,10.7375 -3.229723,15.91163 -0.969473,7.19929 -0.666927,18.47895 0.613596,22.87665 1.956512,6.71923 4.933154,10.20934 10.205766,11.96628 2.440287,0.81315 7.761185,0.41026 11.599787,-0.87831 z m 84.116317,0.45694 c 5.6567,-2.44913 9.04487,-8.77412 9.97316,-18.61775 0.73864,-7.83263 -0.60887,-19.9652 -3.37481,-30.38563 -0.38589,-1.45384 -0.52678,-1.57803 -1.53911,-1.35666 -4.72167,1.0325 -18.02732,3.2174 -23.19288,3.80845 l -6.2989,0.72073 -2.59811,3.57407 c -3.61276,4.96985 -8.16785,10.66569 -12.76684,15.96406 l -3.90614,4.50015 1.8158,1.87244 c 3.12653,3.22408 11.24175,9.83964 15.54493,12.67228 6.36564,4.19031 11.87288,6.72592 16.99962,7.82686 2.32602,0.4995 7.60836,0.17216 9.34328,-0.579 z m -45.56852,-29.86783 c 2.93602,-3.2805 11.93292,-14.46208 11.93292,-14.83056 0,-0.12484 -6.72711,-0.22698 -14.94915,-0.22698 -8.22203,0 -14.943794,0.0966 -14.937245,0.21455 0.04304,0.77563 14.342715,17.86285 14.948765,17.86285 0.16607,0 1.51819,-1.35894 3.00471,-3.01986 z m 12.26389,-22.15722 5.10638,-0.2393 2.81821,-4.21342 c 5.11686,-7.65007 14.27989,-23.76591 16.80189,-29.551 0.70567,-1.618697 0.70144,-1.726326 -0.14271,-3.634673 -2.63338,-5.953188 -11.52954,-21.555154 -16.68799,-29.267152 -2.14954,-3.213607 -3.07364,-4.26329 -3.77205,-4.284668 -0.50877,-0.01557 -5.03605,-0.177932 -10.06063,-0.360806 -11.16103,-0.40621 -29.210015,0.139235 -29.95562,0.905271 -2.022542,2.077953 -13.347621,21.262931 -17.596091,29.808245 l -2.586038,5.201516 2.588932,5.179837 c 4.36149,8.72631 15.595039,27.73543 17.616052,29.80943 1.020899,1.04766 20.009005,1.39001 35.869665,0.64672 z m -47.170335,-5.60542 c -3.728672,-5.93915 -6.872591,-11.38813 -9.79929,-16.98394 -3.107987,-5.94245 -2.43192,-6.31565 -6.235902,3.44238 -3.92152,10.05953 -5.030552,13.61871 -4.37063,14.02657 1.388918,0.8584 22.465508,4.2723 22.727072,3.68124 0.06694,-0.15126 -0.977625,-2.02608 -2.32125,-4.16625 z m 75.699535,2.31293 c 6.72198,-1.20849 8.92797,-1.74983 8.92797,-2.19088 0,-1.6505 -7.89566,-22.25618 -8.33883,-21.76225 -0.15213,0.16956 -2.00648,3.48499 -4.12077,7.36762 -2.11429,3.88262 -5.40802,9.56057 -7.3194,12.61764 -1.91138,3.05708 -3.47524,5.69053 -3.47524,5.8521 0,0.36792 6.70234,-0.51359 14.32627,-1.88423 z M 51.538615,121.77244 c 2.158301,-6.32512 4.937469,-13.44759 7.528194,-19.29333 l 1.800584,-4.062855 -1.033244,-2.284832 C 57.734881,91.489258 52.737434,78.755188 51.231302,74.210376 49.980349,70.435569 49.544278,69.561854 48.990819,69.721332 32.914307,74.353746 21.335307,80.100566 14.704075,86.738322 c -3.07516,3.078184 -4.598356,5.586382 -5.4782104,9.020792 -0.6039861,2.357585 -0.6052435,2.825041 -0.014044,5.220746 0.8527264,3.45549 2.3896274,6.00491 5.4922534,9.11059 4.507865,4.5123 11.803775,8.893 20.72665,12.44496 4.116451,1.63865 12.967332,4.62704 13.966907,4.71576 0.144932,0.0129 1.108376,-2.45257 2.140984,-5.47873 z m 124.716615,3.18628 c 16.87958,-5.57251 28.25799,-13.14879 32.06991,-21.35366 1.48228,-3.19048 1.48228,-7.19087 0,-10.381351 -3.82543,-8.23396 -15.15019,-15.768234 -32.12323,-21.371342 -8.44909,-2.789196 -7.35784,-3.072117 -9.15715,2.374112 -1.89892,5.747709 -5.28219,14.493145 -7.7637,20.068399 -1.68622,3.788468 -1.81111,4.284556 -1.31635,5.228831 1.40494,2.681431 6.23146,14.816421 8.32759,20.937501 2.30359,6.72692 2.34208,6.80062 3.42056,6.55037 0.59991,-0.1392 3.54398,-1.06299 6.54237,-2.05286 z M 72.455009,76.26061 c 1.292591,-2.203982 3.449496,-5.758293 4.793126,-7.898463 1.343625,-2.140175 2.388189,-4.021617 2.32125,-4.180983 -0.248646,-0.591954 -21.338453,2.837756 -22.727072,3.69597 -0.659922,0.407854 0.44911,3.96704 4.37063,14.02657 3.803982,9.75803 3.127915,9.384824 6.235902,3.442383 1.460798,-2.793029 3.713573,-6.881498 5.006164,-9.085477 z m 84.629741,5.751234 c 3.06538,-7.853508 4.94737,-13.718401 4.52589,-14.10416 -0.84302,-0.771571 -22.64977,-4.328203 -22.90049,-3.735016 -0.0654,0.154694 1.16905,2.316433 2.74319,4.803864 2.94322,4.650827 6.76288,11.274867 10.24467,17.76625 l 1.98072,3.692802 0.60895,-1.408904 c 0.33493,-0.774898 1.59361,-3.931573 2.79707,-7.014836 z M 60.18506,60.201085 c 5.132214,-1.045648 16.78159,-2.807605 22.035532,-3.332852 l 2.772919,-0.277215 3.728053,-5.041706 c 3.205185,-4.334594 8.062991,-10.305259 14.008366,-17.217504 l 1.54344,-1.794442 -2.03149,-2.093251 C 96.69388,24.727461 86.547749,17.16682 80.01918,13.884318 74.370149,11.044041 70.844192,10.041011 66.367166,10.000729 61.528411,9.957192 59.03263,10.917782 56.247013,13.895831 c -3.926374,4.197614 -5.247269,8.6237 -5.547909,18.590092 -0.23527,7.799458 0.1422,12.085279 1.801842,20.458125 1.29039,6.509994 1.765474,8.305084 2.198003,8.305084 0.188177,0 2.65693,-0.47162 5.486111,-1.048047 z m 104.14801,-0.509156 c 2.7546,-10.381912 4.10047,-22.524279 3.36319,-30.342505 -0.96081,-10.188534 -4.33619,-16.292258 -10.38842,-18.785468 -2.44607,-1.0076577 -8.71238,-0.7139085 -12.56397,0.588968 -8.37614,2.833401 -18.05485,9.224911 -27.40204,18.095431 l -3.37386,3.20181 4.28576,4.95245 c 4.14946,4.794945 10.91724,13.329054 13.67662,17.246101 l 1.34713,1.912296 6.30544,0.721491 c 6.21354,0.710978 22.26046,3.380697 22.64765,3.76788 0.10931,0.109312 0.53413,0.198749 0.94404,0.198749 0.51094,0 0.87521,-0.489655 1.15846,-1.557203 z M 124.0875,55.405363 c 0,-0.386892 -10.02074,-12.73061 -12.61699,-15.541824 l -2.30101,-2.491525 -2.61091,2.862171 c -2.71196,2.972934 -12.352535,14.832007 -12.36327,15.20831 -0.0033,0.117999 6.721,0.214546 14.94303,0.214546 8.22204,0 14.94915,-0.113253 14.94915,-0.251678 z"
     id="path5709"
     inkscape:connector-curvature="0" />
  <path
     style="opacity:0.93699999;fill:#000000;fill-opacity:1;fill-rule:evenodd;stroke:none;stroke-width:0.41525424;stroke-linecap:round;stroke-linejoin:round;stroke-miterlimit:4;stroke-dasharray:none;stroke-dashoffset:0;paint-order:normal"
     d="m 103.35453,120.80034 c -7.926419,-2.13091 -14.151252,-8.23997 -16.463339,-16.15714 -0.96444,-3.30249 -0.96444,-9.155139 0,-12.457627 2.934284,-10.047736 11.889954,-16.817797 22.247159,-16.817797 10.06505,0 18.19474,5.813179 21.92748,15.679356 0.90149,2.38278 1.05914,3.47934 1.05914,7.367255 0,3.887913 -0.15765,4.984473 -1.05914,7.367253 -2.98887,7.90003 -8.61168,13.08972 -16.30498,15.04904 -3.07958,0.7843 -8.42899,0.77007 -11.40632,-0.0304 z m 11.49729,-7.15294 c 4.62909,-1.75892 8.39893,-5.71109 9.8837,-10.36177 1.05869,-3.316051 0.68578,-8.697069 -0.82097,-11.846455 -3.06281,-6.401875 -10.59447,-10.351593 -17.3453,-9.096145 -5.41319,1.006687 -9.771767,4.321515 -12.122694,9.219662 -1.184177,2.467227 -1.295492,3.055959 -1.295492,6.851695 0,3.798283 0.110712,4.382813 1.297753,6.851693 3.737192,7.77286 12.514803,11.3786 20.403003,8.38132 z"
     id="path5711"
     inkscape:connector-curvature="0" />
  <path
     style="opacity:0.93699999;fill:none;fill-opacity:1;fill-rule:evenodd;stroke:none;stroke-width:0.41525424;stroke-linecap:round;stroke-linejoin:round;stroke-miterlimit:4;stroke-dasharray:none;stroke-dashoffset:0;paint-order:normal"
     d="m 53.148578,54.501251 c -1.9622,-9.568107 -2.26624,-12.81563 -2.027831,-21.659789 0.235022,-8.71854 0.70247,-11.191613 2.896436,-15.323829 5.281466,-9.9473567 16.78716,-9.7887537 32.307321,0.445348 5.22436,3.44498 11.741621,8.662856 15.109196,12.096778 l 2.46907,2.517723 -0.83301,0.943876 c -5.900065,6.685287 -11.87755,14.069329 -16.121905,19.915534 -2.24493,3.092187 -1.672089,2.862651 -9.161198,3.670831 -4.825703,0.520762 -15.437081,2.242236 -19.231276,3.119867 -4.333446,1.00237 -3.941844,1.417114 -5.406803,-5.726339 z"
     id="path5713"
     inkscape:connector-curvature="0" />
  <path
     style="opacity:0.93699999;fill:none;fill-opacity:1;fill-rule:evenodd;stroke:none;stroke-width:0.41525424;stroke-linecap:round;stroke-linejoin:round;stroke-miterlimit:4;stroke-dasharray:none;stroke-dashoffset:0;paint-order:normal"
     d="m 159.38411,60.163907 c -4.40556,-0.981462 -14.34391,-2.573227 -20.30715,-3.252471 -3.06109,-0.348676 -5.60969,-0.683234 -5.66354,-0.743467 -0.0539,-0.06023 -1.54833,-2.071591 -3.32104,-4.469684 -3.68569,-4.98592 -7.12405,-9.247983 -12.16045,-15.073652 l -3.51809,-4.069414 1.41098,-1.48769 c 2.71423,-2.861777 10.46453,-9.272497 14.67492,-12.138463 4.8858,-3.325722 10.376,-6.179404 14.5581,-7.566979 3.87413,-1.285393 10.86277,-1.3981812 13.04198,-0.210483 4.18255,2.27955 7.21601,6.908489 8.65235,13.203128 1.14932,5.036847 0.94037,16.36863 -0.4506,24.436773 -0.61031,3.540043 -1.43751,7.65106 -1.83821,9.135593 -0.8402,3.112725 -0.94341,3.158179 -5.07925,2.236809 z"
     id="path5715"
     inkscape:connector-curvature="0" />
  <path
     style="opacity:0.93699999;fill:none;fill-opacity:1;fill-rule:evenodd;stroke:none;stroke-width:0.41525424;stroke-linecap:round;stroke-linejoin:round;stroke-miterlimit:4;stroke-dasharray:none;stroke-dashoffset:0;paint-order:normal"
     d="m 94.900132,54.916505 c 5.394268,-7.046315 13.718978,-16.92161 14.264638,-16.92161 0.52792,0 9.33955,10.414532 13.43884,15.883475 l 1.16721,1.557203 h -14.63403 c -11.642316,0 -14.552791,-0.106116 -14.236658,-0.519068 z"
     id="path5717"
     inkscape:connector-curvature="0" />
  <path
     style="opacity:0.93699999;fill:none;fill-opacity:1;fill-rule:evenodd;stroke:none;stroke-width:0.41525424;stroke-linecap:round;stroke-linejoin:round;stroke-miterlimit:4;stroke-dasharray:none;stroke-dashoffset:0;paint-order:normal"
     d="m 95.642589,133.93449 c -2.740678,-0.17518 -5.382266,-0.34385 -5.870195,-0.37482 -1.442264,-0.0915 -9.157725,-12.35119 -16.969673,-26.96434 -2.169217,-4.05777 -3.94403,-7.739193 -3.94403,-8.180943 0,-1.639228 10.356476,-20.234695 16.676827,-29.943909 l 3.273474,-5.028655 2.519045,-0.263292 c 8.283635,-0.865811 35.348793,-0.622487 37.781963,0.339672 1.95954,0.77487 20.30801,32.307005 20.30801,34.899629 0,1.700268 -10.31906,20.314158 -16.76889,30.248328 l -3.05735,4.70898 -2.23306,0.27002 c -3.56749,0.43139 -26.25569,0.63836 -31.716121,0.28933 z m 18.271191,-12.68027 c 7.71788,-1.61328 13.90576,-6.88423 17.06324,-14.53475 1.11213,-2.69468 1.19966,-3.30067 1.19966,-8.305083 0,-5.004416 -0.0875,-5.6104 -1.19966,-8.305085 -2.33697,-5.66244 -6.11668,-9.872069 -11.13853,-12.405463 -9.48553,-4.785201 -20.091766,-2.973938 -27.603719,4.71398 -7.917149,8.102605 -8.460621,21.999791 -1.200181,30.689971 5.769115,6.90519 14.29476,9.94085 22.87919,8.14643 z"
     id="path5719"
     inkscape:connector-curvature="0" />
  <path
     style="opacity:0.93699999;fill:none;fill-opacity:1;fill-rule:evenodd;stroke:none;stroke-width:0.41525424;stroke-linecap:round;stroke-linejoin:round;stroke-miterlimit:4;stroke-dasharray:none;stroke-dashoffset:0;paint-order:normal"
     d="m 63.958069,87.969457 c -1.53604,-3.044277 -7.141751,-18.327635 -7.141751,-19.471204 0,-0.568732 3.990585,-1.468859 12.665254,-2.856807 7.123561,-1.139771 9.758475,-1.475842 9.758475,-1.244648 0,0.08902 -1.936138,3.388083 -4.302529,7.331248 -2.366391,3.943165 -5.567272,9.505197 -7.113069,12.360069 -1.545798,2.854873 -2.866751,5.255502 -2.935452,5.334732 -0.0687,0.07923 -0.487618,-0.574796 -0.930928,-1.45339 z"
     id="path5721"
     inkscape:connector-curvature="0" />
  <path
     style="opacity:0.93699999;fill:none;fill-opacity:1;fill-rule:evenodd;stroke:none;stroke-width:0.41525424;stroke-linecap:round;stroke-linejoin:round;stroke-miterlimit:4;stroke-dasharray:none;stroke-dashoffset:0;paint-order:normal"
     d="M 41.867166,124.55558 C 30.060079,120.60125 20.387142,115.31674 14.885299,109.8149 7.3461666,102.27577 7.3188276,94.646952 14.803803,87.073874 c 3.528893,-3.57043 8.533957,-6.891129 15.173774,-10.067312 5.367248,-2.567443 18.647505,-7.272384 19.332398,-6.849097 0.209737,0.129625 0.978688,2.055715 1.708779,4.2802 1.567004,4.774424 5.980978,16.074311 8.067178,20.652177 l 1.471752,3.229546 -2.86319,6.691572 c -2.499951,5.84264 -4.160507,10.20492 -7.356125,19.32456 -0.433949,1.2384 -0.975864,2.31084 -1.204254,2.38321 -0.22839,0.0724 -3.498517,-0.90105 -7.266949,-2.16315 z"
     id="path5723"
     inkscape:connector-curvature="0" />
  <path
     style="opacity:0.93699999;fill:none;fill-opacity:1;fill-rule:evenodd;stroke:none;stroke-width:0.41525424;stroke-linecap:round;stroke-linejoin:round;stroke-miterlimit:4;stroke-dasharray:none;stroke-dashoffset:0;paint-order:normal"
     d="m 61.082881,185.96904 c -4.333151,-1.53434 -8.138511,-6.98255 -9.441832,-13.51808 -0.749295,-3.75735 -0.870259,-15.53058 -0.211065,-20.54254 0.732172,-5.56683 2.991874,-15.91361 3.475108,-15.91192 0.25181,8.9e-4 2.867212,0.4735 5.812006,1.05025 5.350862,1.048 14.030557,2.37583 18.730576,2.86543 5.546652,0.57779 5.315546,0.47057 7.500181,3.4797 4.244355,5.84621 10.22184,13.23025 16.121905,19.91554 l 0.83301,0.94387 -2.46907,2.51772 c -8.179869,8.34104 -22.389187,17.42835 -30.083484,19.23933 -3.371372,0.79351 -7.96504,0.77593 -10.267335,-0.0393 z"
     id="path5725"
     inkscape:connector-curvature="0" />
  <path
     style="opacity:0.93699999;fill:none;fill-opacity:1;fill-rule:evenodd;stroke:none;stroke-width:0.41525424;stroke-linecap:round;stroke-linejoin:round;stroke-miterlimit:4;stroke-dasharray:none;stroke-dashoffset:0;paint-order:normal"
     d="m 146.30361,185.82921 c -7.7509,-2.07115 -21.76658,-11.2102 -29.85892,-19.46976 l -2.03688,-2.07898 3.5211,-4.07287 c 5.03927,-5.82895 8.4771,-10.09028 12.16347,-15.07711 1.77271,-2.39809 3.26653,-4.4088 3.31958,-4.46823 0.0531,-0.0594 2.50822,-0.38386 5.45592,-0.72094 6.77238,-0.77446 9.54435,-1.20358 17.94043,-2.77732 3.72207,-0.69765 6.83367,-1.19939 6.91466,-1.11497 0.30061,0.31335 2.30442,9.85753 2.99645,14.27214 0.97714,6.23342 0.98802,17.91453 0.0207,22.2161 -1.5459,6.87435 -5.40501,12.13801 -9.87162,13.46445 -2.88863,0.85783 -6.95766,0.79139 -10.56488,-0.17251 z"
     id="path5727"
     inkscape:connector-curvature="0" />
  <path
     style="opacity:0.93699999;fill:none;fill-opacity:1;fill-rule:evenodd;stroke:none;stroke-width:0.41525424;stroke-linecap:round;stroke-linejoin:round;stroke-miterlimit:4;stroke-dasharray:none;stroke-dashoffset:0;paint-order:normal"
     d="m 168.29589,125.43122 c -0.33368,-0.79861 -0.60669,-1.60589 -0.60669,-1.79395 0,-0.79249 -4.39263,-12.42158 -6.93674,-18.36439 -1.51389,-3.5363 -2.75253,-6.621046 -2.75253,-6.854982 0,-0.233936 1.3121,-3.507122 2.91578,-7.273746 2.56377,-6.021645 5.74305,-14.514231 7.18636,-19.196439 0.26302,-0.853281 0.62698,-1.643351 0.80878,-1.755712 0.48745,-0.301263 6.88917,1.632423 12.20043,3.685232 13.51837,5.224863 22.7763,11.707633 26.44233,18.515967 1.31497,2.44209 1.45339,3.015537 1.45339,6.021187 0,3.005653 -0.13842,3.579093 -1.45339,6.021183 -3.98982,7.40966 -15.18322,14.73903 -30.31356,19.84912 -8.68848,2.93443 -8.2221,2.87465 -8.94416,1.14653 z"
     id="path5729"
     inkscape:connector-curvature="0" />
  <path
     style="opacity:0.93699999;fill:none;fill-opacity:1;fill-rule:evenodd;stroke:none;stroke-width:0.41525424;stroke-linecap:round;stroke-linejoin:round;stroke-miterlimit:4;stroke-dasharray:none;stroke-dashoffset:0;paint-order:normal"
     d="m 139.03666,132.48092 c 0,-0.12627 1.38007,-2.43491 3.06682,-5.13032 1.68675,-2.69541 4.75584,-7.97291 6.8202,-11.7278 2.06436,-3.75488 4.00388,-7.17189 4.31004,-7.59336 0.49736,-0.68466 0.84972,-0.0211 3.30773,6.22882 3.00183,7.63272 5.19679,14.12263 4.88267,14.43675 -0.32106,0.32105 -10.1528,2.21734 -15.12051,2.91635 -2.51229,0.35351 -5.17511,0.74543 -5.91738,0.87094 -0.74226,0.12551 -1.34957,0.12488 -1.34957,-0.001 z"
     id="path5731"
     inkscape:connector-curvature="0" />
  <path
     style="opacity:0.93699999;fill:none;fill-opacity:1;fill-rule:evenodd;stroke:none;stroke-width:0.41525424;stroke-linecap:round;stroke-linejoin:round;stroke-miterlimit:4;stroke-dasharray:none;stroke-dashoffset:0;paint-order:normal"
     d="m 104.48846,153.74701 c -2.38816,-2.79777 -5.593222,-6.67521 -7.12237,-8.61652 l -2.780268,-3.52966 7.276268,-0.1134 c 4.00194,-0.0624 10.54107,-0.0624 14.53139,0 l 7.25514,0.1134 -2.71972,3.52966 c -3.82638,4.96589 -11.31218,13.70339 -11.74029,13.70339 -0.19693,0 -2.312,-2.28909 -4.70015,-5.08687 z"
     id="path5733"
     inkscape:connector-curvature="0" />
  <path
     style="opacity:0.93699999;fill:none;fill-opacity:1;fill-rule:evenodd;stroke:none;stroke-width:0.41525424;stroke-linecap:round;stroke-linejoin:round;stroke-miterlimit:4;stroke-dasharray:none;stroke-dashoffset:0;paint-order:normal"
     d="m 63.958069,87.969457 c -1.53604,-3.044277 -7.141751,-18.327635 -7.141751,-19.471204 0,-0.568732 3.990585,-1.468859 12.665254,-2.856807 7.123561,-1.139771 9.758475,-1.475842 9.758475,-1.244648 0,0.08902 -1.936138,3.388083 -4.302529,7.331248 -2.366391,3.943165 -5.567272,9.505197 -7.113069,12.360069 -1.545798,2.854873 -2.866751,5.255502 -2.935452,5.334732 -0.0687,0.07923 -0.487618,-0.574796 -0.930928,-1.45339 z"
     id="path5735"
     inkscape:connector-curvature="0" />
  <path
     style="opacity:0.93699999;fill:none;fill-opacity:1;fill-rule:evenodd;stroke:none;stroke-width:0.41525424;stroke-linecap:round;stroke-linejoin:round;stroke-miterlimit:4;stroke-dasharray:none;stroke-dashoffset:0;paint-order:normal"
     d="m 152.57169,87.929217 c -1.40478,-2.966388 -7.45284,-13.621631 -10.48704,-18.47568 -1.6764,-2.681856 -3.04799,-4.966273 -3.04799,-5.076482 0,-0.110209 0.51387,-0.115544 1.14195,-0.01185 0.62807,0.103689 3.29089,0.481815 5.91737,0.84028 4.82771,0.658891 14.98408,2.584232 15.30033,2.900479 0.48587,0.485867 -7.14628,21.380462 -7.80961,21.380462 -0.15267,0 -0.60942,-0.700742 -1.01501,-1.557204 z"
     id="path5737"
     inkscape:connector-curvature="0" />
  <path
     style="opacity:0.93699999;fill:none;fill-opacity:1;fill-rule:evenodd;stroke:none;stroke-width:0.41525424;stroke-linecap:round;stroke-linejoin:round;stroke-miterlimit:4;stroke-dasharray:none;stroke-dashoffset:0;paint-order:normal"
     d="m 95.642589,133.93449 c -2.740678,-0.17518 -5.382266,-0.34385 -5.870195,-0.37482 -1.442264,-0.0915 -9.157725,-12.35119 -16.969673,-26.96434 -2.169217,-4.05777 -3.94403,-7.739193 -3.94403,-8.180943 0,-1.639228 10.356476,-20.234695 16.676827,-29.943909 l 3.273474,-5.028655 2.519045,-0.263292 c 8.283635,-0.865811 35.348793,-0.622487 37.781963,0.339672 1.95954,0.77487 20.30801,32.307005 20.30801,34.899629 0,1.700268 -10.31906,20.314158 -16.76889,30.248328 l -3.05735,4.70898 -2.23306,0.27002 c -3.56749,0.43139 -26.25569,0.63836 -31.716121,0.28933 z m 18.271191,-12.68027 c 7.71788,-1.61328 13.90576,-6.88423 17.06324,-14.53475 1.11213,-2.69468 1.19966,-3.30067 1.19966,-8.305083 0,-5.004416 -0.0875,-5.6104 -1.19966,-8.305085 -2.33697,-5.66244 -6.11668,-9.872069 -11.13853,-12.405463 -9.48553,-4.785201 -20.091766,-2.973938 -27.603719,4.71398 -7.917149,8.102605 -8.460621,21.999791 -1.200181,30.689971 5.769115,6.90519 14.29476,9.94085 22.87919,8.14643 z"
     id="path5739"
     inkscape:connector-curvature="0" />
  <path
     style="opacity:0.93699999;fill:none;fill-opacity:1;fill-rule:evenodd;stroke:none;stroke-width:0.41525424;stroke-linecap:round;stroke-linejoin:round;stroke-miterlimit:4;stroke-dasharray:none;stroke-dashoffset:0;paint-order:normal"
     d="m 104.68933,113.82346 c -4.17237,-1.3617 -8.174892,-4.83377 -10.104104,-8.76501 -0.894121,-1.82198 -1.018908,-2.63569 -1.018908,-6.644063 0,-4.225337 0.091,-4.747383 1.213716,-6.963147 1.51362,-2.98723 4.894624,-6.230225 8.024596,-7.697036 2.069,-0.969606 2.91694,-1.119478 6.33372,-1.119478 3.54553,0 4.2183,0.129561 6.64526,1.279735 12.37664,5.865488 12.38715,23.110959 0.0177,28.961929 -2.16321,1.02323 -3.32485,1.29198 -6.02119,1.39299 -2.04697,0.0767 -4.0186,-0.096 -5.09075,-0.44592 z"
     id="path5741"
     inkscape:connector-curvature="0" />
  <path
     style="opacity:0.93699999;fill:none;fill-opacity:1;fill-rule:evenodd;stroke:none;stroke-width:0.41525424;stroke-linecap:round;stroke-linejoin:round;stroke-miterlimit:4;stroke-dasharray:none;stroke-dashoffset:0;paint-order:normal"
     d="m 73.220153,131.80571 c -5.166177,-0.7513 -16.040887,-2.8074 -16.338439,-3.08914 -0.402864,-0.38145 4.135145,-13.16995 6.774215,-19.09032 l 1.110624,-2.49152 0.642835,1.24576 c 2.139585,4.14634 7.785612,14.05028 10.571886,18.54461 3.258132,5.25543 3.530978,5.78372 2.947332,5.70662 -0.171292,-0.0226 -2.740096,-0.39433 -5.708453,-0.82601 z"
     id="path5743"
     inkscape:connector-curvature="0" />
  <path
     style="opacity:0.93699999;fill:none;fill-opacity:1;fill-rule:evenodd;stroke:none;stroke-width:0.41525424;stroke-linecap:round;stroke-linejoin:round;stroke-miterlimit:4;stroke-dasharray:none;stroke-dashoffset:0;paint-order:normal"
     d="M 63.958069,87.969456 C 62.422028,84.925179 56.816318,69.64182 56.816318,68.498251 c 0,-0.568732 3.990584,-1.468858 12.665254,-2.856807 7.12356,-1.139771 9.758474,-1.475842 9.758474,-1.244648 0,0.08902 -1.936138,3.388083 -4.302529,7.331249 -2.36639,3.943165 -5.567272,9.505196 -7.113069,12.360069 -1.545797,2.854873 -2.866751,5.255502 -2.935452,5.334731 -0.0687,0.07923 -0.487618,-0.574795 -0.930927,-1.453389 z"
     id="path1428"
     inkscape:connector-curvature="0" />
  <path
     style="opacity:0.93699999;fill:none;fill-opacity:1;fill-rule:evenodd;stroke:none;stroke-width:0.41525424;stroke-linecap:round;stroke-linejoin:round;stroke-miterlimit:4;stroke-dasharray:none;stroke-dashoffset:0;paint-order:normal"
     d="m 73.220152,131.80571 c -5.166177,-0.7513 -16.040886,-2.80741 -16.338438,-3.08914 -0.402864,-0.38145 4.135145,-13.16995 6.774214,-19.09032 l 1.110624,-2.49153 0.642836,1.24577 c 2.139584,4.14634 7.785611,14.05028 10.571885,18.5446 3.258132,5.25544 3.530978,5.78372 2.947332,5.70663 -0.171292,-0.0226 -2.740096,-0.39433 -5.708453,-0.82601 z"
     id="path1430"
     inkscape:connector-curvature="0" />
  <path
     style="opacity:0.93699999;fill:none;fill-opacity:1;fill-rule:evenodd;stroke:none;stroke-width:0.41525424;stroke-linecap:round;stroke-linejoin:round;stroke-miterlimit:4;stroke-dasharray:none;stroke-dashoffset:0;paint-order:normal"
     d="M 63.958069,87.969456 C 62.422028,84.925179 56.816318,69.64182 56.816318,68.498251 c 0,-0.568732 3.990584,-1.468858 12.665254,-2.856807 7.12356,-1.139771 9.758474,-1.475842 9.758474,-1.244648 0,0.08902 -1.936138,3.388083 -4.302529,7.331249 -2.36639,3.943165 -5.567272,9.505196 -7.113069,12.360069 -1.545797,2.854873 -2.866751,5.255502 -2.935452,5.334731 -0.0687,0.07923 -0.487618,-0.574795 -0.930927,-1.453389 z"
     id="path1432"
     inkscape:connector-curvature="0" />
  <path
     style="opacity:0.93699999;fill:none;fill-opacity:1;fill-rule:evenodd;stroke:none;stroke-width:0.41525424;stroke-linecap:round;stroke-linejoin:round;stroke-miterlimit:4;stroke-dasharray:none;stroke-dashoffset:0;paint-order:normal"
     d="M 63.958069,87.969456 C 62.422028,84.925179 56.816318,69.64182 56.816318,68.498251 c 0,-0.568732 3.990584,-1.468858 12.665254,-2.856807 7.12356,-1.139771 9.758474,-1.475842 9.758474,-1.244648 0,0.08902 -1.936138,3.388083 -4.302529,7.331249 -2.36639,3.943165 -5.567272,9.505196 -7.113069,12.360069 -1.545797,2.854873 -2.866751,5.255502 -2.935452,5.334731 -0.0687,0.07923 -0.487618,-0.574795 -0.930927,-1.453389 z"
     id="path1434"
     inkscape:connector-curvature="0" />
  <path
     style="opacity:0.93699999;fill:none;fill-opacity:1;fill-rule:evenodd;stroke:none;stroke-width:0.41525424;stroke-linecap:round;stroke-linejoin:round;stroke-miterlimit:4;stroke-dasharray:none;stroke-dashoffset:0;paint-order:normal"
     d="M 63.958069,87.969456 C 62.422028,84.925179 56.816318,69.64182 56.816318,68.498251 c 0,-0.568732 3.990584,-1.468858 12.665254,-2.856807 7.12356,-1.139771 9.758474,-1.475842 9.758474,-1.244648 0,0.08902 -1.936138,3.388083 -4.302529,7.331249 -2.36639,3.943165 -5.567272,9.505196 -7.113069,12.360069 -1.545797,2.854873 -2.866751,5.255502 -2.935452,5.334731 -0.0687,0.07923 -0.487618,-0.574795 -0.930927,-1.453389 z"
     id="path1436"
     inkscape:connector-curvature="0" />
  <path
     style="opacity:0.93699999;fill:none;fill-opacity:1;fill-rule:evenodd;stroke:none;stroke-width:0.41525424;stroke-linecap:round;stroke-linejoin:round;stroke-miterlimit:4;stroke-dasharray:none;stroke-dashoffset:0;paint-order:normal"
     d="M 63.958069,87.969456 C 62.422028,84.925179 56.816318,69.64182 56.816318,68.498251 c 0,-0.568732 3.990584,-1.468858 12.665254,-2.856807 7.12356,-1.139771 9.758474,-1.475842 9.758474,-1.244648 0,0.08902 -1.936138,3.388083 -4.302529,7.331249 -2.36639,3.943165 -5.567272,9.505196 -7.113069,12.360069 -1.545797,2.854873 -2.866751,5.255502 -2.935452,5.334731 -0.0687,0.07923 -0.487618,-0.574795 -0.930927,-1.453389 z"
     id="path1438"
     inkscape:connector-curvature="0" />
  <path
     style="opacity:0.93699999;fill:none;fill-opacity:1;fill-rule:evenodd;stroke:none;stroke-width:0.41525424;stroke-linecap:round;stroke-linejoin:round;stroke-miterlimit:4;stroke-dasharray:none;stroke-dashoffset:0;paint-order:normal"
     d="M 63.958069,87.969456 C 62.422028,84.925179 56.816318,69.64182 56.816318,68.498251 c 0,-0.568732 3.990584,-1.468858 12.665254,-2.856807 7.12356,-1.139771 9.758474,-1.475842 9.758474,-1.244648 0,0.08902 -1.936138,3.388083 -4.302529,7.331249 -2.36639,3.943165 -5.567272,9.505196 -7.113069,12.360069 -1.545797,2.854873 -2.866751,5.255502 -2.935452,5.334731 -0.0687,0.07923 -0.487618,-0.574795 -0.930927,-1.453389 z"
     id="path1440"
     inkscape:connector-curvature="0" />
</svg>
