<?xml version="1.0" ?><svg id="Layer_1" style="enable-background:new 0 0 96 96;" version="1.1" viewBox="0 0 96 96" xml:space="preserve" xmlns="http://www.w3.org/2000/svg" xmlns:xlink="http://www.w3.org/1999/xlink"><style type="text/css">
	.st0{fill:none;stroke:#000000;stroke-width:4;stroke-miterlimit:10;}
</style><g><path d="M87,9v67.4L48.8,86.6c-0.1,0-0.4,0.1-0.8,0.1s-0.8,0-0.8-0.1L9,76.4V9h36.6h4.9H87 M90.6,3H50.4c-1.3,0-3.6,0-4.9,0H5.4   C4.1,3,3,4.1,3,5.4v73.1c0,1.3,1.1,2.7,2.4,3.1l40.3,10.7c0.7,0.2,1.5,0.3,2.4,0.3s1.7-0.1,2.4-0.3l40.3-10.7   c1.3-0.3,2.4-1.7,2.4-3.1V5.4C93,4.1,91.9,3,90.6,3L90.6,3z"/></g><line class="st0" x1="3" x2="93" y1="18" y2="18"/><g><path class="st0" d="M4,70l41.4,11.3c1.4,0.4,3.7,0.4,5.1,0L92,70"/></g><g><path d="M12,56.7l2.9-3.6c1.6,1.4,3.7,2.4,5.6,2.4c2.1,0,3.2-0.9,3.2-2.2c0-1.5-1.3-1.9-3.3-2.8l-3-1.3c-2.3-1-4.6-2.9-4.6-6.3   c0-3.8,3.3-6.9,8.1-6.9c2.6,0,5.4,1.1,7.3,3.1l-2.6,3.3c-1.5-1.2-2.9-1.8-4.7-1.8c-1.8,0-2.9,0.8-2.9,2.1c0,1.4,1.5,1.9,3.5,2.7   l2.9,1.2c2.8,1.1,4.5,3,4.5,6.3c0,3.8-3.1,7.2-8.6,7.2C17.4,60,14.3,58.9,12,56.7z"/><path d="M36,36.4h6.2l7.1,23.1h-5.4l-1.4-5.5h-6.9l-1.4,5.5h-5.2L36,36.4z M36.6,50h4.8l-0.5-2.1c-0.6-2.3-1.3-5-1.8-7.5h-0.1   c-0.6,2.4-1.1,5.1-1.8,7.5L36.6,50z"/><path d="M49.3,56.7l2.9-3.6c1.6,1.4,3.7,2.4,5.6,2.4c2.1,0,3.2-0.9,3.2-2.2c0-1.5-1.3-1.9-3.3-2.8l-3-1.3c-2.3-1-4.6-2.9-4.6-6.3   c0-3.8,3.4-6.9,8.1-6.9c2.6,0,5.4,1.1,7.3,3.1L63,42.4c-1.5-1.2-2.9-1.8-4.7-1.8c-1.8,0-2.9,0.8-2.9,2.1c0,1.4,1.5,1.9,3.5,2.7   l2.9,1.2c2.8,1.1,4.5,3,4.5,6.3c0,3.8-3.1,7.2-8.6,7.2C54.7,60,51.6,58.9,49.3,56.7z"/><path d="M67,56.7l2.9-3.6c1.6,1.4,3.7,2.4,5.6,2.4c2.1,0,3.2-0.9,3.2-2.2c0-1.5-1.3-1.9-3.3-2.8l-3-1.3c-2.3-1-4.6-2.9-4.6-6.3   c0-3.8,3.3-6.9,8.1-6.9c2.6,0,5.4,1.1,7.3,3.1l-2.6,3.3c-1.5-1.2-2.9-1.8-4.7-1.8c-1.8,0-2.9,0.8-2.9,2.1c0,1.4,1.5,1.9,3.5,2.7   l2.9,1.2c2.8,1.1,4.5,3,4.5,6.3c0,3.8-3.1,7.2-8.6,7.2C72.5,60,69.3,58.9,67,56.7z"/></g></svg>